<mxfile host="app.diagrams.net" modified="2024-04-19T07:24:28.964Z" agent="Mozilla/5.0 (Windows NT 10.0; Win64; x64) AppleWebKit/537.36 (KHTML, like Gecko) Chrome/123.0.0.0 Safari/537.36" etag="81fynr48J04PyWNRhbIE" version="24.2.5" type="github">
  <diagram name="demo map" id="FxGXTTEncgowV30jL5ve">
    <mxGraphModel dx="1050" dy="530" grid="1" gridSize="10" guides="1" tooltips="1" connect="1" arrows="1" fold="1" page="1" pageScale="1" pageWidth="827" pageHeight="1169" math="0" shadow="0">
      <root>
        <mxCell id="0" />
        <mxCell id="1" parent="0" />
        <mxCell id="1XXJpL3UBPijCrwnZo7M-11" value="APP" style="rounded=0;whiteSpace=wrap;html=1;verticalAlign=top;fontStyle=1;labelBackgroundColor=none;fillColor=#f8cecc;strokeColor=#b85450;" vertex="1" parent="1">
          <mxGeometry x="290" y="160" width="600" height="360" as="geometry" />
        </mxCell>
        <mxCell id="1XXJpL3UBPijCrwnZo7M-1" value="FRONTEND" style="rounded=0;whiteSpace=wrap;html=1;verticalAlign=top;" vertex="1" parent="1">
          <mxGeometry x="350" y="250" width="120" height="180" as="geometry" />
        </mxCell>
        <mxCell id="1XXJpL3UBPijCrwnZo7M-2" value="MAP SERVICES" style="rounded=0;whiteSpace=wrap;html=1;verticalAlign=top;" vertex="1" parent="1">
          <mxGeometry x="530" y="250" width="120" height="180" as="geometry" />
        </mxCell>
        <mxCell id="1XXJpL3UBPijCrwnZo7M-3" value="DATA SOURCES&lt;div&gt;&lt;br&gt;&lt;/div&gt;" style="rounded=0;whiteSpace=wrap;html=1;verticalAlign=top;" vertex="1" parent="1">
          <mxGeometry x="710" y="250" width="120" height="180" as="geometry" />
        </mxCell>
        <mxCell id="1XXJpL3UBPijCrwnZo7M-4" value="react app" style="rounded=0;whiteSpace=wrap;html=1;fillColor=#e1d5e7;strokeColor=#9673a6;" vertex="1" parent="1">
          <mxGeometry x="355" y="290" width="110" height="30" as="geometry" />
        </mxCell>
        <mxCell id="1XXJpL3UBPijCrwnZo7M-5" value="npm server" style="rounded=0;whiteSpace=wrap;html=1;" vertex="1" parent="1">
          <mxGeometry x="355" y="330" width="110" height="30" as="geometry" />
        </mxCell>
        <mxCell id="1XXJpL3UBPijCrwnZo7M-6" value="leaflet js" style="rounded=0;whiteSpace=wrap;html=1;fillColor=#d5e8d4;strokeColor=#82b366;" vertex="1" parent="1">
          <mxGeometry x="355" y="370" width="110" height="30" as="geometry" />
        </mxCell>
        <mxCell id="1XXJpL3UBPijCrwnZo7M-7" value="geoserwer" style="rounded=0;whiteSpace=wrap;html=1;fillColor=#dae8fc;strokeColor=#6c8ebf;" vertex="1" parent="1">
          <mxGeometry x="535" y="290" width="110" height="30" as="geometry" />
        </mxCell>
        <mxCell id="1XXJpL3UBPijCrwnZo7M-8" value="postgis" style="rounded=0;whiteSpace=wrap;html=1;fillColor=#ffe6cc;strokeColor=#d79b00;" vertex="1" parent="1">
          <mxGeometry x="715" y="290" width="110" height="30" as="geometry" />
        </mxCell>
        <mxCell id="1XXJpL3UBPijCrwnZo7M-9" value="gpkg fgb files" style="rounded=0;whiteSpace=wrap;html=1;" vertex="1" parent="1">
          <mxGeometry x="715" y="330" width="110" height="30" as="geometry" />
        </mxCell>
        <mxCell id="1XXJpL3UBPijCrwnZo7M-10" style="edgeStyle=orthogonalEdgeStyle;rounded=0;orthogonalLoop=1;jettySize=auto;html=1;exitX=0.5;exitY=1;exitDx=0;exitDy=0;" edge="1" parent="1" source="1XXJpL3UBPijCrwnZo7M-1" target="1XXJpL3UBPijCrwnZo7M-1">
          <mxGeometry relative="1" as="geometry" />
        </mxCell>
        <mxCell id="1XXJpL3UBPijCrwnZo7M-13" value="" style="endArrow=classic;html=1;rounded=0;exitX=1;exitY=0.5;exitDx=0;exitDy=0;entryX=0;entryY=0.5;entryDx=0;entryDy=0;" edge="1" parent="1" source="1XXJpL3UBPijCrwnZo7M-4" target="1XXJpL3UBPijCrwnZo7M-7">
          <mxGeometry width="50" height="50" relative="1" as="geometry">
            <mxPoint x="670" y="330" as="sourcePoint" />
            <mxPoint x="720" y="280" as="targetPoint" />
          </mxGeometry>
        </mxCell>
        <mxCell id="1XXJpL3UBPijCrwnZo7M-24" value="9090" style="edgeLabel;html=1;align=center;verticalAlign=middle;resizable=0;points=[];" vertex="1" connectable="0" parent="1XXJpL3UBPijCrwnZo7M-13">
          <mxGeometry x="-0.52" y="1" relative="1" as="geometry">
            <mxPoint as="offset" />
          </mxGeometry>
        </mxCell>
        <mxCell id="1XXJpL3UBPijCrwnZo7M-14" value="" style="endArrow=classic;html=1;rounded=0;exitX=1;exitY=0.5;exitDx=0;exitDy=0;entryX=0;entryY=0.5;entryDx=0;entryDy=0;" edge="1" parent="1" source="1XXJpL3UBPijCrwnZo7M-7" target="1XXJpL3UBPijCrwnZo7M-8">
          <mxGeometry width="50" height="50" relative="1" as="geometry">
            <mxPoint x="670" y="330" as="sourcePoint" />
            <mxPoint x="720" y="280" as="targetPoint" />
          </mxGeometry>
        </mxCell>
        <mxCell id="1XXJpL3UBPijCrwnZo7M-22" value="5433" style="edgeLabel;html=1;align=center;verticalAlign=middle;resizable=0;points=[];" vertex="1" connectable="0" parent="1XXJpL3UBPijCrwnZo7M-14">
          <mxGeometry x="-0.0343" y="1" relative="1" as="geometry">
            <mxPoint as="offset" />
          </mxGeometry>
        </mxCell>
        <mxCell id="1XXJpL3UBPijCrwnZo7M-15" value="" style="endArrow=classic;html=1;rounded=0;exitX=1;exitY=0.5;exitDx=0;exitDy=0;entryX=0;entryY=0.5;entryDx=0;entryDy=0;" edge="1" parent="1" source="1XXJpL3UBPijCrwnZo7M-7" target="1XXJpL3UBPijCrwnZo7M-9">
          <mxGeometry width="50" height="50" relative="1" as="geometry">
            <mxPoint x="670" y="330" as="sourcePoint" />
            <mxPoint x="720" y="280" as="targetPoint" />
          </mxGeometry>
        </mxCell>
        <mxCell id="1XXJpL3UBPijCrwnZo7M-23" value="storage" style="edgeLabel;html=1;align=center;verticalAlign=middle;resizable=0;points=[];" vertex="1" connectable="0" parent="1XXJpL3UBPijCrwnZo7M-15">
          <mxGeometry x="0.0695" y="3" relative="1" as="geometry">
            <mxPoint as="offset" />
          </mxGeometry>
        </mxCell>
        <mxCell id="1XXJpL3UBPijCrwnZo7M-18" style="edgeStyle=orthogonalEdgeStyle;rounded=0;orthogonalLoop=1;jettySize=auto;html=1;entryX=0;entryY=0.25;entryDx=0;entryDy=0;" edge="1" parent="1" source="1XXJpL3UBPijCrwnZo7M-16" target="1XXJpL3UBPijCrwnZo7M-7">
          <mxGeometry relative="1" as="geometry">
            <Array as="points">
              <mxPoint x="490" y="240" />
              <mxPoint x="490" y="298" />
            </Array>
          </mxGeometry>
        </mxCell>
        <mxCell id="1XXJpL3UBPijCrwnZo7M-25" value="9090" style="edgeLabel;html=1;align=center;verticalAlign=middle;resizable=0;points=[];" vertex="1" connectable="0" parent="1XXJpL3UBPijCrwnZo7M-18">
          <mxGeometry x="0.8915" y="2" relative="1" as="geometry">
            <mxPoint y="1" as="offset" />
          </mxGeometry>
        </mxCell>
        <mxCell id="1XXJpL3UBPijCrwnZo7M-26" value="OWS" style="edgeLabel;html=1;align=center;verticalAlign=middle;resizable=0;points=[];" vertex="1" connectable="0" parent="1XXJpL3UBPijCrwnZo7M-18">
          <mxGeometry x="-0.4158" y="2" relative="1" as="geometry">
            <mxPoint as="offset" />
          </mxGeometry>
        </mxCell>
        <mxCell id="1XXJpL3UBPijCrwnZo7M-16" value="GIS system client&lt;div&gt;&lt;br&gt;&lt;/div&gt;" style="shape=umlActor;verticalLabelPosition=bottom;verticalAlign=top;html=1;outlineConnect=0;" vertex="1" parent="1">
          <mxGeometry x="190" y="210" width="30" height="60" as="geometry" />
        </mxCell>
        <mxCell id="1XXJpL3UBPijCrwnZo7M-19" style="edgeStyle=orthogonalEdgeStyle;rounded=0;orthogonalLoop=1;jettySize=auto;html=1;entryX=0;entryY=0.5;entryDx=0;entryDy=0;" edge="1" parent="1" source="1XXJpL3UBPijCrwnZo7M-17" target="1XXJpL3UBPijCrwnZo7M-4">
          <mxGeometry relative="1" as="geometry">
            <Array as="points">
              <mxPoint x="310" y="410" />
              <mxPoint x="310" y="305" />
            </Array>
          </mxGeometry>
        </mxCell>
        <mxCell id="1XXJpL3UBPijCrwnZo7M-21" value="web browser" style="edgeLabel;html=1;align=center;verticalAlign=middle;resizable=0;points=[];" vertex="1" connectable="0" parent="1XXJpL3UBPijCrwnZo7M-19">
          <mxGeometry x="-0.7017" y="1" relative="1" as="geometry">
            <mxPoint as="offset" />
          </mxGeometry>
        </mxCell>
        <mxCell id="1XXJpL3UBPijCrwnZo7M-17" value="&lt;div&gt;web app client&lt;/div&gt;&lt;div&gt;&lt;br&gt;&lt;/div&gt;" style="shape=umlActor;verticalLabelPosition=bottom;verticalAlign=top;html=1;outlineConnect=0;" vertex="1" parent="1">
          <mxGeometry x="190" y="380" width="30" height="60" as="geometry" />
        </mxCell>
      </root>
    </mxGraphModel>
  </diagram>
</mxfile>
